<svg xmlns="http://www.w3.org/2000/svg" width="512" height="512" viewBox="0 0 512 512">
  <rect width="512" height="512" fill="white" rx="64"/>
  <g transform="translate(86, 66) scale(1.33)">
    <path d="M128 0C57.3 0 0 57.3 0 128s57.3 128 128 128c25.3 0 48.8-7.4 68.7-20.1l-0.7-24.9c-18.5 15.2-42 24.3-68 24.3C75.9 235.3 20.7 180.1 20.7 128S75.9 20.7 128 20.7c52.1 0 107.3 55.2 107.3 107.3v12.7h-64c0-28.7-20.3-52-45.3-52s-45.3 23.3-45.3 52 20.3 52 45.3 52c14.8 0 28.1-7.5 36.5-19.4l20.8 0c-11.5 22.8-33.7 38.7-57.3 38.7-35.3 0-64-28.7-64-64V128c0-42 34-76.3 76-76.3 42 0 76 34.3 76 76.3v41.3c0 11.5-6.7 22-20 22s-20-10.5-20-22V128c0-19.9-16.1-36-36-36s-36 16.1-36 36 16.1 36 36 36c10.2 0 19.4-4.3 25.9-11.1 5.2 8.7 14 14.4 24.1 15.1v3.3c0 22.2 18.4 40.7 38.7 40.7 10.5 0 20.3-4.4 27.3-12.1V128C256 57.3 198.7 0 128 0z" fill="black"/>
  </g>
</svg>
